<mxfile host="app.diagrams.net" modified="2022-06-27T14:30:21.398Z" agent="5.0 (Windows)" etag="VxXqjyMPHLjHm1H_AwJ5" version="20.0.3" type="github">
  <diagram id="4rheyOznAyS8LiGPESLI" name="Page-1">
    <mxGraphModel dx="782" dy="764" grid="1" gridSize="10" guides="1" tooltips="1" connect="1" arrows="1" fold="1" page="1" pageScale="1" pageWidth="827" pageHeight="1169" math="0" shadow="0">
      <root>
        <mxCell id="0" />
        <mxCell id="1" parent="0" />
        <mxCell id="ZvnZ3r_ltjKPsAShnKx8-1" value="Person" style="swimlane;fontStyle=1;align=center;verticalAlign=top;childLayout=stackLayout;horizontal=1;startSize=26;horizontalStack=0;resizeParent=1;resizeParentMax=0;resizeLast=0;collapsible=1;marginBottom=0;" vertex="1" parent="1">
          <mxGeometry x="170" y="270" width="160" height="108" as="geometry" />
        </mxCell>
        <mxCell id="ZvnZ3r_ltjKPsAShnKx8-2" value="wwid String &#xa;name String &#xa;gebuda Date &#xa;" style="text;strokeColor=none;fillColor=none;align=left;verticalAlign=top;spacingLeft=4;spacingRight=4;overflow=hidden;rotatable=0;points=[[0,0.5],[1,0.5]];portConstraint=eastwest;" vertex="1" parent="ZvnZ3r_ltjKPsAShnKx8-1">
          <mxGeometry y="26" width="160" height="74" as="geometry" />
        </mxCell>
        <mxCell id="ZvnZ3r_ltjKPsAShnKx8-3" value="" style="line;strokeWidth=1;fillColor=none;align=left;verticalAlign=middle;spacingTop=-1;spacingLeft=3;spacingRight=3;rotatable=0;labelPosition=right;points=[];portConstraint=eastwest;" vertex="1" parent="ZvnZ3r_ltjKPsAShnKx8-1">
          <mxGeometry y="100" width="160" height="8" as="geometry" />
        </mxCell>
        <mxCell id="ZvnZ3r_ltjKPsAShnKx8-5" value="Saison" style="swimlane;fontStyle=0;childLayout=stackLayout;horizontal=1;startSize=26;fillColor=none;horizontalStack=0;resizeParent=1;resizeParentMax=0;resizeLast=0;collapsible=1;marginBottom=0;" vertex="1" parent="1">
          <mxGeometry x="70" y="60" width="140" height="104" as="geometry" />
        </mxCell>
        <mxCell id="ZvnZ3r_ltjKPsAShnKx8-6" value="+ field: type" style="text;strokeColor=none;fillColor=none;align=left;verticalAlign=top;spacingLeft=4;spacingRight=4;overflow=hidden;rotatable=0;points=[[0,0.5],[1,0.5]];portConstraint=eastwest;" vertex="1" parent="ZvnZ3r_ltjKPsAShnKx8-5">
          <mxGeometry y="26" width="140" height="26" as="geometry" />
        </mxCell>
        <mxCell id="ZvnZ3r_ltjKPsAShnKx8-7" value="+ field: type" style="text;strokeColor=none;fillColor=none;align=left;verticalAlign=top;spacingLeft=4;spacingRight=4;overflow=hidden;rotatable=0;points=[[0,0.5],[1,0.5]];portConstraint=eastwest;" vertex="1" parent="ZvnZ3r_ltjKPsAShnKx8-5">
          <mxGeometry y="52" width="140" height="26" as="geometry" />
        </mxCell>
        <mxCell id="ZvnZ3r_ltjKPsAShnKx8-8" value="+ field: type" style="text;strokeColor=none;fillColor=none;align=left;verticalAlign=top;spacingLeft=4;spacingRight=4;overflow=hidden;rotatable=0;points=[[0,0.5],[1,0.5]];portConstraint=eastwest;" vertex="1" parent="ZvnZ3r_ltjKPsAShnKx8-5">
          <mxGeometry y="78" width="140" height="26" as="geometry" />
        </mxCell>
        <mxCell id="ZvnZ3r_ltjKPsAShnKx8-9" value="Spieltage" style="swimlane;fontStyle=0;childLayout=stackLayout;horizontal=1;startSize=26;fillColor=none;horizontalStack=0;resizeParent=1;resizeParentMax=0;resizeLast=0;collapsible=1;marginBottom=0;" vertex="1" parent="1">
          <mxGeometry x="390" y="70" width="140" height="104" as="geometry" />
        </mxCell>
        <mxCell id="ZvnZ3r_ltjKPsAShnKx8-10" value="id int  &#xa;" style="text;strokeColor=none;fillColor=none;align=left;verticalAlign=top;spacingLeft=4;spacingRight=4;overflow=hidden;rotatable=0;points=[[0,0.5],[1,0.5]];portConstraint=eastwest;" vertex="1" parent="ZvnZ3r_ltjKPsAShnKx8-9">
          <mxGeometry y="26" width="140" height="26" as="geometry" />
        </mxCell>
        <mxCell id="ZvnZ3r_ltjKPsAShnKx8-12" value="datum Date" style="text;strokeColor=none;fillColor=none;align=left;verticalAlign=top;spacingLeft=4;spacingRight=4;overflow=hidden;rotatable=0;points=[[0,0.5],[1,0.5]];portConstraint=eastwest;" vertex="1" parent="ZvnZ3r_ltjKPsAShnKx8-9">
          <mxGeometry y="52" width="140" height="26" as="geometry" />
        </mxCell>
        <mxCell id="ZvnZ3r_ltjKPsAShnKx8-11" value="+ field: type" style="text;strokeColor=none;fillColor=none;align=left;verticalAlign=top;spacingLeft=4;spacingRight=4;overflow=hidden;rotatable=0;points=[[0,0.5],[1,0.5]];portConstraint=eastwest;" vertex="1" parent="ZvnZ3r_ltjKPsAShnKx8-9">
          <mxGeometry y="78" width="140" height="26" as="geometry" />
        </mxCell>
        <mxCell id="ZvnZ3r_ltjKPsAShnKx8-45" style="edgeStyle=orthogonalEdgeStyle;rounded=0;orthogonalLoop=1;jettySize=auto;html=1;exitX=0;exitY=0.5;exitDx=0;exitDy=0;entryX=1;entryY=0.5;entryDx=0;entryDy=0;endArrow=none;endFill=0;" edge="1" parent="1" source="ZvnZ3r_ltjKPsAShnKx8-13" target="ZvnZ3r_ltjKPsAShnKx8-30">
          <mxGeometry relative="1" as="geometry" />
        </mxCell>
        <mxCell id="ZvnZ3r_ltjKPsAShnKx8-47" value="1" style="edgeLabel;html=1;align=center;verticalAlign=middle;resizable=0;points=[];" vertex="1" connectable="0" parent="ZvnZ3r_ltjKPsAShnKx8-45">
          <mxGeometry x="-0.6809" y="1" relative="1" as="geometry">
            <mxPoint as="offset" />
          </mxGeometry>
        </mxCell>
        <mxCell id="ZvnZ3r_ltjKPsAShnKx8-48" value="4" style="edgeLabel;html=1;align=center;verticalAlign=middle;resizable=0;points=[];" vertex="1" connectable="0" parent="ZvnZ3r_ltjKPsAShnKx8-45">
          <mxGeometry x="0.766" y="-1" relative="1" as="geometry">
            <mxPoint as="offset" />
          </mxGeometry>
        </mxCell>
        <mxCell id="ZvnZ3r_ltjKPsAShnKx8-13" value="Spiel" style="swimlane;fontStyle=0;childLayout=stackLayout;horizontal=1;startSize=26;fillColor=none;horizontalStack=0;resizeParent=1;resizeParentMax=0;resizeLast=0;collapsible=1;marginBottom=0;" vertex="1" parent="1">
          <mxGeometry x="500" y="450" width="140" height="78" as="geometry" />
        </mxCell>
        <mxCell id="ZvnZ3r_ltjKPsAShnKx8-14" value="Uhrzeit: Time" style="text;strokeColor=none;fillColor=none;align=left;verticalAlign=top;spacingLeft=4;spacingRight=4;overflow=hidden;rotatable=0;points=[[0,0.5],[1,0.5]];portConstraint=eastwest;" vertex="1" parent="ZvnZ3r_ltjKPsAShnKx8-13">
          <mxGeometry y="26" width="140" height="26" as="geometry" />
        </mxCell>
        <mxCell id="ZvnZ3r_ltjKPsAShnKx8-22" value="Ort: Place" style="text;strokeColor=none;fillColor=none;align=left;verticalAlign=top;spacingLeft=4;spacingRight=4;overflow=hidden;rotatable=0;points=[[0,0.5],[1,0.5]];portConstraint=eastwest;" vertex="1" parent="ZvnZ3r_ltjKPsAShnKx8-13">
          <mxGeometry y="52" width="140" height="26" as="geometry" />
        </mxCell>
        <mxCell id="ZvnZ3r_ltjKPsAShnKx8-18" value="Mannschaft" style="swimlane;fontStyle=0;childLayout=stackLayout;horizontal=1;startSize=26;fillColor=none;horizontalStack=0;resizeParent=1;resizeParentMax=0;resizeLast=0;collapsible=1;marginBottom=0;" vertex="1" parent="1">
          <mxGeometry x="500" y="580" width="140" height="52" as="geometry" />
        </mxCell>
        <mxCell id="ZvnZ3r_ltjKPsAShnKx8-21" value="name: String" style="text;strokeColor=none;fillColor=none;align=left;verticalAlign=top;spacingLeft=4;spacingRight=4;overflow=hidden;rotatable=0;points=[[0,0.5],[1,0.5]];portConstraint=eastwest;" vertex="1" parent="ZvnZ3r_ltjKPsAShnKx8-18">
          <mxGeometry y="26" width="140" height="26" as="geometry" />
        </mxCell>
        <mxCell id="ZvnZ3r_ltjKPsAShnKx8-43" style="edgeStyle=orthogonalEdgeStyle;rounded=0;orthogonalLoop=1;jettySize=auto;html=1;exitX=0.5;exitY=0;exitDx=0;exitDy=0;entryX=0.5;entryY=1;entryDx=0;entryDy=0;entryPerimeter=0;endArrow=none;endFill=0;" edge="1" parent="1" source="ZvnZ3r_ltjKPsAShnKx8-25" target="ZvnZ3r_ltjKPsAShnKx8-3">
          <mxGeometry relative="1" as="geometry" />
        </mxCell>
        <mxCell id="ZvnZ3r_ltjKPsAShnKx8-25" value="Spieler" style="swimlane;fontStyle=0;childLayout=stackLayout;horizontal=1;startSize=26;fillColor=none;horizontalStack=0;resizeParent=1;resizeParentMax=0;resizeLast=0;collapsible=1;marginBottom=0;" vertex="1" parent="1">
          <mxGeometry x="90" y="450" width="140" height="78" as="geometry" />
        </mxCell>
        <mxCell id="ZvnZ3r_ltjKPsAShnKx8-26" value="Nummer" style="text;strokeColor=none;fillColor=none;align=left;verticalAlign=top;spacingLeft=4;spacingRight=4;overflow=hidden;rotatable=0;points=[[0,0.5],[1,0.5]];portConstraint=eastwest;" vertex="1" parent="ZvnZ3r_ltjKPsAShnKx8-25">
          <mxGeometry y="26" width="140" height="26" as="geometry" />
        </mxCell>
        <mxCell id="ZvnZ3r_ltjKPsAShnKx8-37" value="Rolle" style="text;strokeColor=none;fillColor=none;align=left;verticalAlign=top;spacingLeft=4;spacingRight=4;overflow=hidden;rotatable=0;points=[[0,0.5],[1,0.5]];portConstraint=eastwest;" vertex="1" parent="ZvnZ3r_ltjKPsAShnKx8-25">
          <mxGeometry y="52" width="140" height="26" as="geometry" />
        </mxCell>
        <mxCell id="ZvnZ3r_ltjKPsAShnKx8-44" style="edgeStyle=orthogonalEdgeStyle;rounded=0;orthogonalLoop=1;jettySize=auto;html=1;exitX=0.5;exitY=0;exitDx=0;exitDy=0;entryX=0.5;entryY=1.125;entryDx=0;entryDy=0;entryPerimeter=0;endArrow=block;endFill=0;" edge="1" parent="1" source="ZvnZ3r_ltjKPsAShnKx8-29" target="ZvnZ3r_ltjKPsAShnKx8-3">
          <mxGeometry relative="1" as="geometry" />
        </mxCell>
        <mxCell id="ZvnZ3r_ltjKPsAShnKx8-29" value="Schiri" style="swimlane;fontStyle=0;childLayout=stackLayout;horizontal=1;startSize=26;fillColor=none;horizontalStack=0;resizeParent=1;resizeParentMax=0;resizeLast=0;collapsible=1;marginBottom=0;" vertex="1" parent="1">
          <mxGeometry x="266" y="450" width="140" height="78" as="geometry" />
        </mxCell>
        <mxCell id="ZvnZ3r_ltjKPsAShnKx8-30" value="Beliebheit: char&#xa;" style="text;strokeColor=none;fillColor=none;align=left;verticalAlign=top;spacingLeft=4;spacingRight=4;overflow=hidden;rotatable=0;points=[[0,0.5],[1,0.5]];portConstraint=eastwest;" vertex="1" parent="ZvnZ3r_ltjKPsAShnKx8-29">
          <mxGeometry y="26" width="140" height="26" as="geometry" />
        </mxCell>
        <mxCell id="ZvnZ3r_ltjKPsAShnKx8-38" value="Auto Standort" style="text;strokeColor=none;fillColor=none;align=left;verticalAlign=top;spacingLeft=4;spacingRight=4;overflow=hidden;rotatable=0;points=[[0,0.5],[1,0.5]];portConstraint=eastwest;" vertex="1" parent="ZvnZ3r_ltjKPsAShnKx8-29">
          <mxGeometry y="52" width="140" height="26" as="geometry" />
        </mxCell>
        <mxCell id="ZvnZ3r_ltjKPsAShnKx8-40" style="edgeStyle=orthogonalEdgeStyle;rounded=0;orthogonalLoop=1;jettySize=auto;html=1;exitX=0;exitY=0.5;exitDx=0;exitDy=0;entryX=0;entryY=0.5;entryDx=0;entryDy=0;endArrow=none;endFill=0;" edge="1" parent="1" source="ZvnZ3r_ltjKPsAShnKx8-21" target="ZvnZ3r_ltjKPsAShnKx8-26">
          <mxGeometry relative="1" as="geometry" />
        </mxCell>
        <mxCell id="ZvnZ3r_ltjKPsAShnKx8-41" value="11..20" style="edgeLabel;html=1;align=center;verticalAlign=middle;resizable=0;points=[];" vertex="1" connectable="0" parent="ZvnZ3r_ltjKPsAShnKx8-40">
          <mxGeometry x="0.931" relative="1" as="geometry">
            <mxPoint as="offset" />
          </mxGeometry>
        </mxCell>
        <mxCell id="ZvnZ3r_ltjKPsAShnKx8-42" value="1" style="edgeLabel;html=1;align=center;verticalAlign=middle;resizable=0;points=[];" vertex="1" connectable="0" parent="ZvnZ3r_ltjKPsAShnKx8-40">
          <mxGeometry x="-0.9586" y="-2" relative="1" as="geometry">
            <mxPoint as="offset" />
          </mxGeometry>
        </mxCell>
        <mxCell id="ZvnZ3r_ltjKPsAShnKx8-50" style="edgeStyle=orthogonalEdgeStyle;rounded=0;orthogonalLoop=1;jettySize=auto;html=1;exitX=1;exitY=0.5;exitDx=0;exitDy=0;entryX=1;entryY=0.5;entryDx=0;entryDy=0;endArrow=none;endFill=0;" edge="1" parent="1" source="ZvnZ3r_ltjKPsAShnKx8-14" target="ZvnZ3r_ltjKPsAShnKx8-21">
          <mxGeometry relative="1" as="geometry" />
        </mxCell>
        <mxCell id="ZvnZ3r_ltjKPsAShnKx8-51" value="1" style="edgeLabel;html=1;align=center;verticalAlign=middle;resizable=0;points=[];" vertex="1" connectable="0" parent="ZvnZ3r_ltjKPsAShnKx8-50">
          <mxGeometry x="-0.7647" y="1" relative="1" as="geometry">
            <mxPoint y="-1" as="offset" />
          </mxGeometry>
        </mxCell>
        <mxCell id="ZvnZ3r_ltjKPsAShnKx8-53" value="2" style="edgeLabel;html=1;align=center;verticalAlign=middle;resizable=0;points=[];" vertex="1" connectable="0" parent="ZvnZ3r_ltjKPsAShnKx8-50">
          <mxGeometry x="0.7647" y="-6" relative="1" as="geometry">
            <mxPoint x="6" y="6" as="offset" />
          </mxGeometry>
        </mxCell>
        <mxCell id="ZvnZ3r_ltjKPsAShnKx8-54" style="edgeStyle=orthogonalEdgeStyle;rounded=0;orthogonalLoop=1;jettySize=auto;html=1;exitX=1;exitY=0.5;exitDx=0;exitDy=0;entryX=0.593;entryY=0.051;entryDx=0;entryDy=0;entryPerimeter=0;endArrow=none;endFill=0;" edge="1" parent="1" source="ZvnZ3r_ltjKPsAShnKx8-12" target="ZvnZ3r_ltjKPsAShnKx8-13">
          <mxGeometry relative="1" as="geometry" />
        </mxCell>
        <mxCell id="ZvnZ3r_ltjKPsAShnKx8-55" value="1" style="edgeLabel;html=1;align=center;verticalAlign=middle;resizable=0;points=[];" vertex="1" connectable="0" parent="ZvnZ3r_ltjKPsAShnKx8-54">
          <mxGeometry x="-0.8649" y="3" relative="1" as="geometry">
            <mxPoint y="-1" as="offset" />
          </mxGeometry>
        </mxCell>
        <mxCell id="ZvnZ3r_ltjKPsAShnKx8-56" value="9" style="edgeLabel;html=1;align=center;verticalAlign=middle;resizable=0;points=[];" vertex="1" connectable="0" parent="ZvnZ3r_ltjKPsAShnKx8-54">
          <mxGeometry x="0.8515" y="1" relative="1" as="geometry">
            <mxPoint as="offset" />
          </mxGeometry>
        </mxCell>
        <mxCell id="ZvnZ3r_ltjKPsAShnKx8-58" style="edgeStyle=orthogonalEdgeStyle;rounded=0;orthogonalLoop=1;jettySize=auto;html=1;exitX=1;exitY=0.5;exitDx=0;exitDy=0;entryX=0;entryY=0.5;entryDx=0;entryDy=0;endArrow=none;endFill=0;" edge="1" parent="1" source="ZvnZ3r_ltjKPsAShnKx8-7" target="ZvnZ3r_ltjKPsAShnKx8-12">
          <mxGeometry relative="1" as="geometry" />
        </mxCell>
        <mxCell id="ZvnZ3r_ltjKPsAShnKx8-59" value="1" style="edgeLabel;html=1;align=center;verticalAlign=middle;resizable=0;points=[];" vertex="1" connectable="0" parent="ZvnZ3r_ltjKPsAShnKx8-58">
          <mxGeometry x="-0.8737" y="1" relative="1" as="geometry">
            <mxPoint as="offset" />
          </mxGeometry>
        </mxCell>
        <mxCell id="ZvnZ3r_ltjKPsAShnKx8-60" value="34" style="edgeLabel;html=1;align=center;verticalAlign=middle;resizable=0;points=[];" vertex="1" connectable="0" parent="ZvnZ3r_ltjKPsAShnKx8-58">
          <mxGeometry x="0.8421" y="-3" relative="1" as="geometry">
            <mxPoint as="offset" />
          </mxGeometry>
        </mxCell>
        <mxCell id="ZvnZ3r_ltjKPsAShnKx8-61" value="Ereignis " style="swimlane;fontStyle=0;childLayout=stackLayout;horizontal=1;startSize=26;fillColor=none;horizontalStack=0;resizeParent=1;resizeParentMax=0;resizeLast=0;collapsible=1;marginBottom=0;" vertex="1" parent="1">
          <mxGeometry x="390" y="210" width="140" height="78" as="geometry" />
        </mxCell>
        <mxCell id="ZvnZ3r_ltjKPsAShnKx8-62" value="Spielminute" style="text;strokeColor=none;fillColor=none;align=left;verticalAlign=top;spacingLeft=4;spacingRight=4;overflow=hidden;rotatable=0;points=[[0,0.5],[1,0.5]];portConstraint=eastwest;" vertex="1" parent="ZvnZ3r_ltjKPsAShnKx8-61">
          <mxGeometry y="26" width="140" height="26" as="geometry" />
        </mxCell>
        <mxCell id="ZvnZ3r_ltjKPsAShnKx8-63" value="Typ" style="text;strokeColor=none;fillColor=none;align=left;verticalAlign=top;spacingLeft=4;spacingRight=4;overflow=hidden;rotatable=0;points=[[0,0.5],[1,0.5]];portConstraint=eastwest;" vertex="1" parent="ZvnZ3r_ltjKPsAShnKx8-61">
          <mxGeometry y="52" width="140" height="26" as="geometry" />
        </mxCell>
        <mxCell id="ZvnZ3r_ltjKPsAShnKx8-73" style="edgeStyle=orthogonalEdgeStyle;rounded=0;orthogonalLoop=1;jettySize=auto;html=1;exitX=0.5;exitY=1;exitDx=0;exitDy=0;entryX=0;entryY=0.5;entryDx=0;entryDy=0;endArrow=none;endFill=0;" edge="1" parent="1" source="ZvnZ3r_ltjKPsAShnKx8-69" target="ZvnZ3r_ltjKPsAShnKx8-21">
          <mxGeometry relative="1" as="geometry" />
        </mxCell>
        <mxCell id="ZvnZ3r_ltjKPsAShnKx8-74" value="1" style="edgeLabel;html=1;align=center;verticalAlign=middle;resizable=0;points=[];" vertex="1" connectable="0" parent="ZvnZ3r_ltjKPsAShnKx8-73">
          <mxGeometry x="-0.8672" y="-1" relative="1" as="geometry">
            <mxPoint as="offset" />
          </mxGeometry>
        </mxCell>
        <mxCell id="ZvnZ3r_ltjKPsAShnKx8-69" value="Trainer" style="swimlane;fontStyle=0;childLayout=stackLayout;horizontal=1;startSize=26;fillColor=none;horizontalStack=0;resizeParent=1;resizeParentMax=0;resizeLast=0;collapsible=1;marginBottom=0;" vertex="1" parent="1">
          <mxGeometry x="380" y="350" width="140" height="78" as="geometry" />
        </mxCell>
        <mxCell id="ZvnZ3r_ltjKPsAShnKx8-70" value="Beliebheit: char&#xa;" style="text;strokeColor=none;fillColor=none;align=left;verticalAlign=top;spacingLeft=4;spacingRight=4;overflow=hidden;rotatable=0;points=[[0,0.5],[1,0.5]];portConstraint=eastwest;" vertex="1" parent="ZvnZ3r_ltjKPsAShnKx8-69">
          <mxGeometry y="26" width="140" height="26" as="geometry" />
        </mxCell>
        <mxCell id="ZvnZ3r_ltjKPsAShnKx8-71" value="Auto Standort" style="text;strokeColor=none;fillColor=none;align=left;verticalAlign=top;spacingLeft=4;spacingRight=4;overflow=hidden;rotatable=0;points=[[0,0.5],[1,0.5]];portConstraint=eastwest;" vertex="1" parent="ZvnZ3r_ltjKPsAShnKx8-69">
          <mxGeometry y="52" width="140" height="26" as="geometry" />
        </mxCell>
        <mxCell id="ZvnZ3r_ltjKPsAShnKx8-72" style="edgeStyle=orthogonalEdgeStyle;rounded=0;orthogonalLoop=1;jettySize=auto;html=1;exitX=0;exitY=0.5;exitDx=0;exitDy=0;endArrow=none;endFill=0;" edge="1" parent="1" source="ZvnZ3r_ltjKPsAShnKx8-71">
          <mxGeometry relative="1" as="geometry">
            <mxPoint x="250" y="380" as="targetPoint" />
          </mxGeometry>
        </mxCell>
        <mxCell id="ZvnZ3r_ltjKPsAShnKx8-75" value="&lt;div&gt;3 Typsiche Probleme von Datenbanken&lt;/div&gt;&lt;div&gt;&lt;br&gt;&lt;/div&gt;&lt;div&gt;Versionkontrolle: &lt;br&gt;&lt;/div&gt;&lt;div&gt;Sind alle Daten immer aktuell? &lt;br&gt;&lt;/div&gt;&lt;div&gt;Was wurde wann geändert &lt;br&gt;&lt;/div&gt;&lt;div&gt;&lt;br&gt;&lt;/div&gt;&lt;div&gt;Mehrfachabspeicherung/Diskrepanzen&lt;/div&gt;&lt;div&gt;&lt;b&gt;REDUNDANZ&amp;nbsp; &lt;/b&gt;&lt;br&gt;&lt;/div&gt;&lt;div&gt;Daten können mehrmals an verschiedenen stellen abgespeichert werden, es ist nicht einfach, sicherzustellen, dass immer an allen stellen daten akutalisiert werden, deshalb kann es zu diskrepanzen kommen &lt;br&gt;&lt;/div&gt;&lt;div&gt;&lt;br&gt;&lt;/div&gt;&lt;div&gt;&lt;br&gt;&lt;/div&gt;&lt;div&gt;&lt;b&gt;Redundanz, DBMS garantiert Konsistenz! &lt;br&gt;&lt;/b&gt;&lt;/div&gt;&lt;div&gt;&lt;b&gt;&lt;br&gt;&lt;/b&gt;&lt;/div&gt;&lt;div&gt;&lt;b&gt;Beschränkte Zugriffmöglichkeit, i.e. Verknüpfung von Daten nicht möglich &lt;br&gt;&lt;/b&gt;&lt;/div&gt;&lt;div&gt;&lt;b&gt;&lt;br&gt;&lt;/b&gt;&lt;/div&gt;&lt;div&gt;&lt;b&gt;Probleme durch Mehrnutzerbetrieb: &lt;br&gt;&lt;/b&gt;&lt;/div&gt;&lt;div&gt;&lt;b&gt;DBMS: logische Isolation der Anfragen verschiedener Benutzer &lt;br&gt;&lt;/b&gt;&lt;/div&gt;&lt;div&gt;&lt;b&gt;&lt;br&gt;&lt;/b&gt;&lt;/div&gt;&lt;div&gt;&lt;b&gt;Datenverlust: Maximu ohne Backup: regelmäßige Backups, mit DBMS: Garantie der Dauerhaftiglkeit einer jeder Druchgeführten OPeration &lt;br&gt;&lt;/b&gt;&lt;/div&gt;&lt;div&gt;&lt;b&gt;&lt;br&gt;&lt;/b&gt;&lt;/div&gt;&lt;div&gt;&lt;b&gt;Sicherheitsprobleme &lt;br&gt;&lt;/b&gt;&lt;/div&gt;&lt;div&gt;&lt;b&gt;&lt;br&gt;&lt;/b&gt;&lt;/div&gt;&lt;div&gt;&lt;b&gt;Hohe Entwicklungskosten &lt;br&gt;&lt;/b&gt;&lt;/div&gt;&lt;div&gt;&lt;b&gt;&lt;br&gt;&lt;/b&gt;&lt;/div&gt;&lt;div&gt;&lt;b&gt;&lt;br&gt;&lt;/b&gt;&lt;/div&gt;&lt;div&gt;&lt;b&gt;ACID&lt;/b&gt;&lt;/div&gt;&lt;div&gt;&lt;b&gt;&lt;br&gt;&lt;/b&gt;&lt;/div&gt;&lt;div&gt;&lt;b&gt;Atomicity &lt;br&gt;&lt;/b&gt;&lt;/div&gt;&lt;div&gt;&lt;b&gt;Consistency &lt;br&gt;&lt;/b&gt;&lt;/div&gt;&lt;div&gt;&lt;b&gt;Isolation &lt;br&gt;&lt;/b&gt;&lt;/div&gt;&lt;div&gt;&lt;b&gt;Durability &lt;br&gt;&lt;/b&gt;&lt;/div&gt;&lt;div&gt;&lt;br&gt;&lt;/div&gt;&lt;div&gt;Attribut: &lt;br&gt;&lt;/div&gt;&lt;div&gt;Eigenschaften&lt;/div&gt;&lt;div&gt;&lt;br&gt;&lt;/div&gt;&lt;div&gt;Attribut ist Eigenschaft der Entitäten der Relation&amp;nbsp; --&amp;gt; Spalte: z.B. Datum &lt;br&gt;&lt;/div&gt;&lt;div&gt;&lt;br&gt;&lt;/div&gt;&lt;div&gt;Schlüssel&lt;/div&gt;&lt;div&gt;Einzigartige Eigentschaft eines Attributs, zur Identifikation verwendet &lt;br&gt;&lt;/div&gt;&lt;div&gt;&lt;br&gt;&lt;/div&gt;&lt;div&gt;identifiziert ein Tupel eindeutig --&amp;gt; z.B. Ausweisnummer &lt;br&gt;&lt;/div&gt;&lt;div&gt;&lt;br&gt;&lt;/div&gt;&lt;div&gt;&lt;br&gt;&lt;/div&gt;&lt;div&gt;Relation: &lt;br&gt;&lt;/div&gt;&lt;div&gt;Beziehungen zwischen Objekten &lt;br&gt;&lt;/div&gt;&lt;div&gt;&lt;br&gt;&lt;/div&gt;&lt;div&gt;Besteht aus Schema und Ausprägung&amp;nbsp; --&amp;gt; Gesamte Tabelle&amp;nbsp; (Gebuda, Ausweisnummer) &lt;br&gt;&lt;/div&gt;&lt;div&gt;&lt;br&gt;&lt;/div&gt;&lt;div&gt;Tupel &lt;b&gt;&lt;br&gt;&lt;/b&gt;&lt;/div&gt;&lt;div&gt;&lt;b&gt;Attributpaar &lt;br&gt;&lt;/b&gt;&lt;/div&gt;&lt;div&gt;&lt;b&gt;&lt;br&gt;&lt;/b&gt;&lt;/div&gt;&lt;div&gt;Entität einer Realtion (Zeile meine Ausweisnummer, Mein GebuDa,...) &lt;br&gt;&lt;/div&gt;&lt;div&gt;&lt;b&gt;&lt;br&gt;&lt;/b&gt;&lt;/div&gt;&lt;div&gt;Schema &lt;br&gt;&lt;/div&gt;&lt;div&gt;&lt;br&gt;&lt;/div&gt;&lt;div&gt;Dömane eines Attruibuts :&lt;/div&gt;&lt;div&gt;Ausweisnummer = char[8]&lt;/div&gt;&lt;div&gt;&lt;br&gt;&lt;/div&gt;&lt;div&gt;&lt;br&gt;&lt;/div&gt;&lt;div&gt;&lt;br&gt;&lt;/div&gt;&lt;div&gt;??&lt;/div&gt;&lt;div&gt;&lt;br&gt;&lt;/div&gt;&lt;div&gt;&lt;br&gt;&lt;/div&gt;&lt;div&gt;Ausprägung &lt;br&gt;&lt;/div&gt;&lt;div&gt;&lt;br&gt;&lt;/div&gt;&lt;div&gt;?? &lt;br&gt;&lt;/div&gt;" style="text;html=1;strokeColor=none;fillColor=none;spacing=5;spacingTop=-20;whiteSpace=wrap;overflow=hidden;rounded=0;" vertex="1" parent="1">
          <mxGeometry x="155" y="650" width="590" height="1040" as="geometry" />
        </mxCell>
      </root>
    </mxGraphModel>
  </diagram>
</mxfile>
